<svg xmlns="http://www.w3.org/2000/svg" xmlns:xlink="http://www.w3.org/1999/xlink" width="200" zoomAndPan="magnify" viewBox="0 0 150 74.999997" height="100" preserveAspectRatio="xMidYMid meet" version="1.0"><defs><g/><clipPath id="737f77a05c"><path d="M 2.089844 30 L 15 30 L 15 38 L 2.089844 38 Z M 2.089844 30 " clip-rule="nonzero"/></clipPath><clipPath id="c865fbb348"><path d="M 15 15 L 59.089844 15 L 59.089844 62.667969 L 15 62.667969 Z M 15 15 " clip-rule="nonzero"/></clipPath></defs><g clip-path="url(#737f77a05c)"><path fill="#63c431" d="M 14.089844 36.890625 C 14.089844 36.890625 14.078125 36.867188 14.058594 36.832031 C 14.035156 36.792969 14.003906 36.734375 13.957031 36.664062 C 13.914062 36.589844 13.859375 36.503906 13.796875 36.402344 C 13.765625 36.351562 13.730469 36.296875 13.691406 36.242188 C 13.652344 36.1875 13.609375 36.128906 13.566406 36.066406 C 13.480469 35.941406 13.382812 35.808594 13.273438 35.667969 C 13.164062 35.53125 13.042969 35.382812 12.914062 35.230469 C 12.878906 35.195312 12.847656 35.15625 12.8125 35.117188 C 12.777344 35.078125 12.742188 35.042969 12.707031 35.003906 C 12.636719 34.925781 12.5625 34.847656 12.484375 34.769531 C 12.40625 34.691406 12.332031 34.613281 12.25 34.535156 C 12.164062 34.460938 12.082031 34.382812 11.992188 34.304688 C 11.296875 33.683594 10.429688 33.101562 9.445312 32.71875 C 9.324219 32.671875 9.199219 32.625 9.070312 32.582031 C 8.945312 32.539062 8.820312 32.503906 8.6875 32.46875 C 8.429688 32.398438 8.164062 32.339844 7.894531 32.300781 C 7.621094 32.261719 7.347656 32.234375 7.066406 32.226562 C 6.929688 32.222656 6.789062 32.222656 6.648438 32.226562 C 6.503906 32.230469 6.359375 32.242188 6.21875 32.253906 C 6.203125 32.253906 6.199219 32.257812 6.199219 32.257812 L 6.21875 32.253906 C 6.289062 32.25 6.558594 32.230469 6.964844 32.28125 C 7.171875 32.308594 7.414062 32.347656 7.6875 32.417969 C 7.957031 32.488281 8.261719 32.585938 8.585938 32.726562 C 8.746094 32.792969 8.914062 32.875 9.089844 32.964844 C 9.261719 33.054688 9.4375 33.160156 9.617188 33.277344 C 9.800781 33.394531 9.980469 33.523438 10.167969 33.667969 C 10.257812 33.742188 10.355469 33.820312 10.449219 33.898438 C 10.539062 33.980469 10.632812 34.066406 10.726562 34.152344 C 10.917969 34.332031 11.101562 34.527344 11.289062 34.738281 C 11.382812 34.84375 11.472656 34.957031 11.566406 35.070312 C 11.65625 35.1875 11.75 35.308594 11.839844 35.433594 C 12.199219 35.933594 12.542969 36.515625 12.851562 37.183594 C 12.738281 37.199219 12.621094 37.210938 12.507812 37.222656 C 11.769531 37.289062 11.007812 37.242188 10.261719 37.097656 C 9.890625 37.027344 9.511719 36.933594 9.144531 36.816406 C 8.960938 36.757812 8.78125 36.695312 8.597656 36.625 C 8.414062 36.558594 8.234375 36.484375 8.058594 36.40625 C 6.828125 35.859375 5.890625 34.890625 5.003906 33.945312 C 4.617188 33.527344 4.136719 33.191406 3.644531 32.988281 C 3.15625 32.789062 2.640625 32.652344 2.121094 32.609375 C 3.121094 31.890625 4.042969 31.339844 4.917969 30.980469 C 5.355469 30.796875 5.78125 30.664062 6.195312 30.570312 C 6.613281 30.480469 7.007812 30.433594 7.402344 30.429688 C 7.59375 30.425781 7.789062 30.433594 7.976562 30.453125 C 8.164062 30.46875 8.347656 30.496094 8.53125 30.535156 C 8.898438 30.605469 9.238281 30.71875 9.578125 30.859375 C 10.238281 31.144531 10.84375 31.550781 11.363281 32.03125 C 12.410156 32.988281 13.128906 34.21875 13.539062 35.195312 C 13.589844 35.316406 13.636719 35.433594 13.683594 35.546875 C 13.726562 35.660156 13.761719 35.769531 13.800781 35.875 C 13.835938 35.976562 13.867188 36.074219 13.894531 36.160156 C 13.925781 36.25 13.945312 36.335938 13.96875 36.410156 C 14.011719 36.5625 14.042969 36.679688 14.0625 36.761719 C 14.082031 36.84375 14.089844 36.890625 14.089844 36.890625 " fill-opacity="1" fill-rule="nonzero"/></g><path fill="#63c431" d="M 17.914062 38.957031 C 17.914062 38.957031 17.921875 38.941406 17.933594 38.917969 C 17.949219 38.894531 17.96875 38.855469 17.996094 38.8125 C 18.023438 38.765625 18.058594 38.710938 18.101562 38.648438 C 18.121094 38.617188 18.140625 38.582031 18.164062 38.546875 C 18.191406 38.511719 18.214844 38.472656 18.242188 38.433594 C 18.300781 38.355469 18.359375 38.273438 18.429688 38.183594 C 18.5 38.097656 18.574219 38.003906 18.65625 37.90625 C 18.679688 37.882812 18.699219 37.859375 18.71875 37.835938 C 18.742188 37.8125 18.765625 37.789062 18.789062 37.761719 C 18.832031 37.714844 18.878906 37.664062 18.929688 37.617188 C 18.976562 37.566406 19.023438 37.519531 19.078125 37.46875 C 19.128906 37.421875 19.183594 37.371094 19.238281 37.320312 C 19.679688 36.929688 20.226562 36.5625 20.847656 36.320312 C 20.925781 36.289062 21.003906 36.261719 21.082031 36.234375 C 21.164062 36.207031 21.242188 36.183594 21.324219 36.160156 C 21.492188 36.117188 21.65625 36.082031 21.828125 36.054688 C 22 36.03125 22.171875 36.015625 22.347656 36.007812 C 22.4375 36.007812 22.527344 36.007812 22.617188 36.007812 C 22.707031 36.011719 22.796875 36.019531 22.886719 36.027344 L 22.898438 36.027344 L 22.886719 36.027344 C 22.84375 36.023438 22.671875 36.011719 22.414062 36.042969 C 22.285156 36.0625 22.132812 36.085938 21.957031 36.128906 C 21.789062 36.175781 21.597656 36.234375 21.390625 36.324219 C 21.289062 36.367188 21.183594 36.417969 21.074219 36.476562 C 20.964844 36.535156 20.855469 36.597656 20.738281 36.671875 C 20.625 36.746094 20.507812 36.828125 20.390625 36.921875 C 20.332031 36.96875 20.273438 37.015625 20.214844 37.066406 C 20.15625 37.117188 20.097656 37.171875 20.039062 37.226562 C 19.917969 37.339844 19.800781 37.460938 19.683594 37.597656 C 19.621094 37.664062 19.566406 37.734375 19.507812 37.804688 C 19.453125 37.878906 19.390625 37.957031 19.335938 38.035156 C 19.109375 38.351562 18.890625 38.71875 18.695312 39.140625 C 18.769531 39.148438 18.839844 39.160156 18.914062 39.164062 C 19.378906 39.207031 19.859375 39.175781 20.332031 39.085938 C 20.566406 39.042969 20.804688 38.984375 21.039062 38.910156 C 21.152344 38.871094 21.265625 38.832031 21.382812 38.789062 C 21.5 38.746094 21.613281 38.699219 21.726562 38.648438 C 22.5 38.304688 23.09375 37.691406 23.652344 37.09375 C 23.898438 36.832031 24.203125 36.621094 24.511719 36.492188 C 24.820312 36.363281 25.148438 36.277344 25.472656 36.25 C 24.84375 35.796875 24.261719 35.449219 23.707031 35.222656 C 23.429688 35.105469 23.164062 35.019531 22.898438 34.964844 C 22.636719 34.90625 22.386719 34.878906 22.140625 34.875 C 22.015625 34.871094 21.894531 34.875 21.777344 34.886719 C 21.65625 34.898438 21.539062 34.917969 21.425781 34.941406 C 21.195312 34.984375 20.976562 35.058594 20.765625 35.144531 C 20.347656 35.324219 19.964844 35.582031 19.636719 35.886719 C 18.972656 36.488281 18.523438 37.265625 18.261719 37.882812 C 18.230469 37.960938 18.199219 38.035156 18.171875 38.109375 C 18.144531 38.179688 18.121094 38.25 18.097656 38.3125 C 18.074219 38.378906 18.054688 38.4375 18.035156 38.496094 C 18.019531 38.550781 18.003906 38.605469 17.992188 38.652344 C 17.964844 38.746094 17.945312 38.824219 17.933594 38.875 C 17.917969 38.925781 17.914062 38.957031 17.914062 38.957031 " fill-opacity="1" fill-rule="nonzero"/><path fill="#4b9636" d="M 12.808594 16.378906 C 12.5 16.382812 12.25 16.636719 12.25 16.945312 L 12.261719 18.871094 L 13.378906 18.863281 L 13.371094 16.9375 C 13.367188 16.628906 13.117188 16.378906 12.808594 16.378906 Z M 19.679688 16.339844 C 19.371094 16.339844 19.121094 16.59375 19.125 16.90625 L 19.136719 18.828125 L 20.253906 18.824219 L 20.242188 16.898438 C 20.242188 16.585938 19.988281 16.335938 19.679688 16.339844 " fill-opacity="1" fill-rule="nonzero"/><path fill="#4b9636" d="M 15.734375 28.761719 L 16.246094 26.769531 L 15.386719 26.777344 L 16.96875 24.203125 L 16.503906 26.097656 L 17.214844 26.09375 Z M 21.964844 22.707031 C 21.960938 22.5 21.792969 22.335938 21.589844 22.335938 L 20.449219 22.34375 L 20.429688 18.84375 L 18.960938 18.855469 L 18.980469 22.351562 L 13.578125 22.382812 L 13.558594 18.886719 L 12.085938 18.894531 L 12.105469 22.394531 L 10.96875 22.398438 C 10.761719 22.402344 10.597656 22.570312 10.597656 22.773438 L 10.617188 25.761719 C 10.617188 26.027344 10.703125 26.289062 10.859375 26.507812 L 14.300781 31.28125 C 14.617188 31.722656 14.804688 32.246094 14.839844 32.789062 L 15.609375 32.78125 L 15.609375 32.925781 L 14.847656 32.929688 C 14.847656 32.941406 14.847656 32.957031 14.847656 32.96875 L 14.855469 34.066406 L 15.636719 34.0625 L 15.640625 34.203125 L 14.855469 34.207031 L 14.859375 34.703125 L 17.84375 34.683594 L 17.835938 33.414062 L 17.058594 33.421875 L 17.058594 33.28125 L 17.835938 33.273438 L 17.832031 32.953125 C 17.832031 32.6875 17.867188 32.425781 17.9375 32.171875 L 17.050781 32.175781 L 17.050781 32.035156 L 17.976562 32.03125 C 18.066406 31.757812 18.195312 31.496094 18.363281 31.257812 L 21.746094 26.445312 C 21.898438 26.222656 21.980469 25.960938 21.980469 25.691406 L 21.964844 22.707031 " fill-opacity="1" fill-rule="nonzero"/><path fill="#f68712" d="M 43.8125 35.027344 L 46.203125 34.011719 L 43.644531 33.914062 C 43.730469 34.277344 43.789062 34.648438 43.8125 35.027344 " fill-opacity="1" fill-rule="nonzero"/><path fill="#f68712" d="M 42.5625 39.476562 L 45.144531 40.277344 L 43.160156 38.464844 C 42.988281 38.820312 42.789062 39.160156 42.5625 39.476562 " fill-opacity="1" fill-rule="nonzero"/><path fill="#f68712" d="M 35.457031 42.152344 C 35.078125 42.058594 34.710938 41.9375 34.359375 41.785156 L 34.03125 44.433594 L 35.457031 42.152344 " fill-opacity="1" fill-rule="nonzero"/><path fill="#f68712" d="M 38.863281 42.089844 L 40.339844 44.390625 L 39.96875 41.671875 C 39.613281 41.839844 39.246094 41.980469 38.863281 42.089844 " fill-opacity="1" fill-rule="nonzero"/><path fill="#f68712" d="M 37.429688 28.667969 C 37.484375 28.671875 37.539062 28.675781 37.59375 28.679688 L 37.074219 26.390625 L 36.585938 28.671875 C 36.863281 28.652344 37.144531 28.652344 37.429688 28.667969 " fill-opacity="1" fill-rule="nonzero"/><path fill="#f68712" d="M 41.898438 30.71875 L 43.015625 28.527344 L 41.109375 30.019531 C 41.390625 30.234375 41.65625 30.46875 41.898438 30.71875 " fill-opacity="1" fill-rule="nonzero"/><path fill="#f68712" d="M 30.414062 34.007812 L 28.042969 34.125 L 30.269531 35.039062 C 30.292969 34.6875 30.339844 34.339844 30.414062 34.007812 " fill-opacity="1" fill-rule="nonzero"/><path fill="#f68712" d="M 31.015625 38.65625 L 29.175781 40.378906 L 31.601562 39.589844 C 31.382812 39.296875 31.1875 38.984375 31.015625 38.65625 " fill-opacity="1" fill-rule="nonzero"/><path fill="#f68712" d="M 32.996094 30.003906 L 31.160156 28.605469 L 32.238281 30.660156 C 32.476562 30.425781 32.730469 30.203125 32.996094 30.003906 " fill-opacity="1" fill-rule="nonzero"/><path fill="#f68712" d="M 41.957031 35.683594 C 41.960938 35.636719 41.960938 35.589844 41.960938 35.542969 C 42.042969 32.855469 39.984375 30.578125 37.304688 30.425781 C 34.578125 30.265625 32.242188 32.367188 32.085938 35.113281 C 31.953125 37.445312 33.4375 39.496094 35.558594 40.15625 C 35.933594 40.273438 36.328125 40.347656 36.738281 40.371094 C 39.464844 40.527344 41.800781 38.429688 41.957031 35.683594 " fill-opacity="1" fill-rule="nonzero"/><path fill="#3a61b6" d="M 26.703125 53.738281 L 23.863281 53.738281 C 24.648438 54.535156 25.5 55.261719 26.414062 55.90625 L 27.085938 54.328125 C 27.207031 54.050781 27.003906 53.738281 26.703125 53.738281 " fill-opacity="1" fill-rule="nonzero"/><path fill="#3a61b6" d="M 27.75 52.773438 L 28.964844 49.925781 C 29.082031 49.644531 28.882812 49.335938 28.582031 49.335938 L 21.363281 49.335938 C 21.140625 49.335938 20.925781 49.410156 20.75 49.542969 C 21.464844 50.855469 22.332031 52.070312 23.324219 53.167969 L 27.152344 53.167969 C 27.414062 53.167969 27.648438 53.011719 27.75 52.773438 " fill-opacity="1" fill-rule="nonzero"/><path fill="#3a61b6" d="M 37.070312 58.746094 L 37.070312 54.277344 C 37.070312 53.980469 36.832031 53.738281 36.535156 53.738281 L 28.308594 53.738281 C 28.09375 53.738281 27.902344 53.871094 27.816406 54.066406 L 26.894531 56.230469 C 29.699219 58.082031 33.027344 59.191406 36.609375 59.277344 C 36.871094 59.242188 37.070312 59.019531 37.070312 58.746094 " fill-opacity="1" fill-rule="nonzero"/><path fill="#3a61b6" d="M 36.5 49.335938 L 30.1875 49.335938 C 29.972656 49.335938 29.777344 49.464844 29.695312 49.664062 L 28.339844 52.84375 C 28.273438 52.996094 28.382812 53.167969 28.550781 53.167969 L 36.535156 53.167969 C 36.832031 53.167969 37.070312 52.929688 37.070312 52.632812 L 37.070312 49.832031 C 37.03125 49.550781 36.789062 49.335938 36.5 49.335938 " fill-opacity="1" fill-rule="nonzero"/><path fill="#3a61b6" d="M 29.628906 48.367188 L 30.511719 46.300781 C 30.628906 46.019531 30.425781 45.710938 30.125 45.710938 L 25.046875 45.710938 C 24.78125 45.710938 24.527344 45.816406 24.335938 46.003906 L 21.726562 48.570312 C 21.65625 48.640625 21.707031 48.765625 21.808594 48.765625 L 29.03125 48.765625 C 29.292969 48.765625 29.527344 48.609375 29.628906 48.367188 " fill-opacity="1" fill-rule="nonzero"/><path fill="#3a61b6" d="M 30.429688 48.765625 L 36.53125 48.765625 C 36.828125 48.765625 37.070312 48.523438 37.066406 48.222656 L 37.054688 46.246094 C 37.054688 45.949219 36.816406 45.710938 36.523438 45.710938 L 31.753906 45.710938 C 31.527344 45.710938 31.320312 45.847656 31.230469 46.058594 L 30.214844 48.441406 C 30.148438 48.59375 30.261719 48.765625 30.429688 48.765625 " fill-opacity="1" fill-rule="nonzero"/><path fill="#3a61b6" d="M 45.042969 49.664062 C 44.960938 49.464844 44.765625 49.335938 44.550781 49.335938 L 38.238281 49.335938 C 37.949219 49.335938 37.710938 49.550781 37.667969 49.832031 L 37.667969 52.632812 C 37.667969 52.929688 37.90625 53.167969 38.203125 53.167969 L 46.1875 53.167969 C 46.355469 53.167969 46.464844 52.996094 46.398438 52.84375 L 45.042969 49.664062 " fill-opacity="1" fill-rule="nonzero"/><path fill="#3a61b6" d="M 50.277344 53.738281 L 48.035156 53.738281 C 47.734375 53.738281 47.53125 54.050781 47.652344 54.328125 L 48.183594 55.574219 C 48.925781 55.015625 49.625 54.402344 50.277344 53.738281 " fill-opacity="1" fill-rule="nonzero"/><path fill="#3a61b6" d="M 46.429688 53.738281 L 38.203125 53.738281 C 37.90625 53.738281 37.667969 53.980469 37.667969 54.277344 L 37.667969 58.746094 C 37.667969 58.988281 37.824219 59.191406 38.039062 59.257812 C 41.625 59.074219 44.941406 57.863281 47.710938 55.914062 L 46.921875 54.066406 C 46.835938 53.871094 46.644531 53.738281 46.429688 53.738281 " fill-opacity="1" fill-rule="nonzero"/><path fill="#3a61b6" d="M 38.207031 48.765625 L 44.308594 48.765625 C 44.476562 48.765625 44.589844 48.59375 44.523438 48.441406 L 43.507812 46.058594 C 43.417969 45.847656 43.210938 45.710938 42.984375 45.710938 L 38.214844 45.710938 C 37.921875 45.710938 37.683594 45.949219 37.683594 46.246094 L 37.671875 48.222656 C 37.671875 48.523438 37.910156 48.765625 38.207031 48.765625 " fill-opacity="1" fill-rule="nonzero"/><path fill="#3a61b6" d="M 45.109375 48.367188 C 45.210938 48.609375 45.449219 48.765625 45.707031 48.765625 L 52.933594 48.765625 C 53.035156 48.765625 53.082031 48.640625 53.011719 48.570312 L 50.402344 46.003906 C 50.210938 45.816406 49.957031 45.710938 49.691406 45.710938 L 44.613281 45.710938 C 44.3125 45.710938 44.109375 46.019531 44.226562 46.300781 L 45.109375 48.367188 " fill-opacity="1" fill-rule="nonzero"/><path fill="#3a61b6" d="M 46.15625 49.335938 C 45.859375 49.335938 45.65625 49.644531 45.773438 49.925781 L 46.988281 52.773438 C 47.089844 53.011719 47.324219 53.167969 47.585938 53.167969 L 50.816406 53.167969 C 51.859375 52.015625 52.761719 50.734375 53.496094 49.34375 C 53.457031 49.339844 53.414062 49.335938 53.375 49.335938 L 46.15625 49.335938 " fill-opacity="1" fill-rule="nonzero"/><g clip-path="url(#c865fbb348)"><path fill="#4b9636" d="M 57.339844 31.980469 C 56.238281 29.355469 54.664062 26.992188 52.65625 24.964844 C 50.648438 22.933594 48.308594 21.339844 45.707031 20.222656 C 45.609375 20.183594 45.515625 20.144531 45.417969 20.105469 C 43.34375 19.269531 37.554688 17.363281 32.851562 19.832031 C 32.851562 19.832031 33.019531 19.71875 33.316406 19.511719 C 33.464844 19.40625 33.65625 19.300781 33.867188 19.167969 C 33.972656 19.097656 34.09375 19.039062 34.21875 18.972656 C 34.34375 18.90625 34.472656 18.828125 34.613281 18.765625 C 34.753906 18.699219 34.902344 18.628906 35.054688 18.558594 C 35.207031 18.488281 35.367188 18.425781 35.535156 18.355469 C 35.867188 18.226562 36.226562 18.101562 36.605469 17.996094 C 36.984375 17.886719 37.382812 17.796875 37.789062 17.722656 C 37.992188 17.683594 38.203125 17.660156 38.410156 17.628906 C 38.621094 17.605469 38.832031 17.585938 39.042969 17.566406 C 39.464844 17.539062 39.890625 17.523438 40.308594 17.535156 C 40.726562 17.539062 41.136719 17.570312 41.535156 17.609375 C 41.933594 17.65625 42.320312 17.707031 42.679688 17.777344 C 42.863281 17.8125 43.042969 17.847656 43.214844 17.886719 C 41.28125 15.738281 36.015625 12.417969 25.828125 22.390625 C 37.226562 27.511719 41.550781 24.316406 43.164062 21.640625 C 51.097656 24.222656 56.855469 31.738281 56.855469 40.570312 C 56.855469 51.535156 48.003906 60.457031 37.121094 60.457031 C 26.375 60.457031 17.523438 51.648438 17.390625 40.820312 L 17.390625 35.160156 L 15.1875 35.160156 L 15.1875 40.839844 C 15.222656 43.796875 15.828125 46.660156 16.984375 49.351562 C 18.105469 51.953125 19.691406 54.285156 21.699219 56.289062 C 25.832031 60.40625 31.308594 62.671875 37.121094 62.671875 C 40.082031 62.671875 42.957031 62.089844 45.660156 60.9375 C 48.273438 59.824219 50.621094 58.230469 52.632812 56.199219 C 54.648438 54.171875 56.230469 51.808594 57.332031 49.175781 C 58.476562 46.449219 59.058594 43.554688 59.058594 40.570312 C 59.058594 37.59375 58.480469 34.703125 57.339844 31.980469 " fill-opacity="1" fill-rule="nonzero"/></g><g fill="#4b9636" fill-opacity="1"><g transform="translate(71.475576, 43.068244)"><g><path d="M 8.359375 -12.96875 L 8.359375 -10.375 L 3.890625 -10.375 L 3.890625 -7.796875 L 8.171875 -7.796875 L 8.171875 -5.203125 L 3.890625 -5.203125 L 3.890625 -2.59375 L 8.359375 -2.59375 L 8.359375 0 L 0.9375 0 L 0.9375 -12.96875 Z M 8.359375 -12.96875 "/></g></g></g><g fill="#4b9636" fill-opacity="1"><g transform="translate(80.59021, 43.068244)"><g><path d="M 7.84375 -2.671875 C 8.289062 -2.671875 8.726562 -2.738281 9.15625 -2.875 C 9.582031 -3.007812 9.894531 -3.140625 10.09375 -3.265625 L 10.390625 -3.46875 L 11.640625 -0.953125 C 11.597656 -0.921875 11.539062 -0.878906 11.46875 -0.828125 C 11.394531 -0.773438 11.222656 -0.675781 10.953125 -0.53125 C 10.691406 -0.394531 10.410156 -0.273438 10.109375 -0.171875 C 9.804688 -0.0664062 9.40625 0.0234375 8.90625 0.109375 C 8.414062 0.191406 7.910156 0.234375 7.390625 0.234375 C 6.179688 0.234375 5.035156 -0.0625 3.953125 -0.65625 C 2.878906 -1.25 2.007812 -2.0625 1.34375 -3.09375 C 0.6875 -4.132812 0.359375 -5.253906 0.359375 -6.453125 C 0.359375 -7.367188 0.550781 -8.242188 0.9375 -9.078125 C 1.332031 -9.921875 1.847656 -10.640625 2.484375 -11.234375 C 3.128906 -11.835938 3.878906 -12.316406 4.734375 -12.671875 C 5.597656 -13.023438 6.484375 -13.203125 7.390625 -13.203125 C 8.222656 -13.203125 8.992188 -13.101562 9.703125 -12.90625 C 10.410156 -12.707031 10.910156 -12.507812 11.203125 -12.3125 L 11.640625 -12.015625 L 10.390625 -9.5 C 10.316406 -9.5625 10.207031 -9.632812 10.0625 -9.71875 C 9.914062 -9.8125 9.617188 -9.929688 9.171875 -10.078125 C 8.734375 -10.222656 8.289062 -10.296875 7.84375 -10.296875 C 7.132812 -10.296875 6.492188 -10.179688 5.921875 -9.953125 C 5.359375 -9.722656 4.910156 -9.414062 4.578125 -9.03125 C 4.253906 -8.65625 4.003906 -8.25 3.828125 -7.8125 C 3.648438 -7.382812 3.5625 -6.941406 3.5625 -6.484375 C 3.5625 -5.503906 3.929688 -4.625 4.671875 -3.84375 C 5.410156 -3.0625 6.46875 -2.671875 7.84375 -2.671875 Z M 7.84375 -2.671875 "/></g></g></g><g fill="#4b9636" fill-opacity="1"><g transform="translate(92.423515, 43.068244)"><g><path d="M 0.359375 -6.484375 C 0.359375 -8.367188 1 -9.957031 2.28125 -11.25 C 3.5625 -12.550781 5.101562 -13.203125 6.90625 -13.203125 C 8.71875 -13.203125 10.253906 -12.554688 11.515625 -11.265625 C 12.785156 -9.972656 13.421875 -8.378906 13.421875 -6.484375 C 13.421875 -4.585938 12.796875 -2.992188 11.546875 -1.703125 C 10.304688 -0.410156 8.757812 0.234375 6.90625 0.234375 C 5.007812 0.234375 3.441406 -0.40625 2.203125 -1.6875 C 0.972656 -2.96875 0.359375 -4.566406 0.359375 -6.484375 Z M 3.546875 -6.484375 C 3.546875 -5.804688 3.648438 -5.1875 3.859375 -4.625 C 4.078125 -4.0625 4.445312 -3.585938 4.96875 -3.203125 C 5.488281 -2.816406 6.132812 -2.625 6.90625 -2.625 C 8 -2.625 8.828125 -3 9.390625 -3.75 C 9.953125 -4.507812 10.234375 -5.421875 10.234375 -6.484375 C 10.234375 -7.546875 9.945312 -8.457031 9.375 -9.21875 C 8.800781 -9.976562 7.976562 -10.359375 6.90625 -10.359375 C 5.832031 -10.359375 5.003906 -9.976562 4.421875 -9.21875 C 3.835938 -8.457031 3.546875 -7.546875 3.546875 -6.484375 Z M 3.546875 -6.484375 "/></g></g></g><g fill="#4b9636" fill-opacity="1"><g transform="translate(106.205462, 43.068244)"><g><path d="M 0.9375 -12.96875 L 4.703125 -12.96875 C 6.503906 -12.96875 8.039062 -12.351562 9.3125 -11.125 C 10.59375 -9.894531 11.234375 -8.347656 11.234375 -6.484375 C 11.234375 -4.617188 10.597656 -3.070312 9.328125 -1.84375 C 8.054688 -0.613281 6.515625 0 4.703125 0 L 0.9375 0 Z M 3.890625 -2.640625 L 4.359375 -2.640625 C 5.429688 -2.640625 6.3125 -3.003906 7 -3.734375 C 7.6875 -4.460938 8.035156 -5.375 8.046875 -6.46875 C 8.046875 -7.570312 7.703125 -8.488281 7.015625 -9.21875 C 6.328125 -9.957031 5.441406 -10.328125 4.359375 -10.328125 L 3.890625 -10.328125 Z M 3.890625 -2.640625 "/></g></g></g><g fill="#4b9636" fill-opacity="1"><g transform="translate(117.803041, 43.068244)"><g><path d="M 3.890625 -12.96875 L 3.890625 0 L 0.9375 0 L 0.9375 -12.96875 Z M 3.890625 -12.96875 "/></g></g></g><g fill="#4b9636" fill-opacity="1"><g transform="translate(122.643228, 43.068244)"><g><path d="M 11.65625 0 L 11.046875 -7.6875 L 10.96875 -7.6875 L 8.3125 -0.078125 L 6.5625 -0.078125 L 3.890625 -7.6875 L 3.8125 -7.6875 L 3.203125 0 L 0.25 0 L 1.421875 -12.96875 L 4.5625 -12.96875 L 7.4375 -5.484375 L 10.3125 -12.96875 L 13.453125 -12.96875 L 14.625 0 Z M 11.65625 0 "/></g></g></g></svg>